<svg width="15" height="14" viewBox="0 0 15 14" fill="none" xmlns="http://www.w3.org/2000/svg">
<path d="M4.71435 1.5238L5.2332 0.668938L4.71435 0.35403L4.1955 0.668938L4.71435 1.5238ZM7.71436 3.34461L7.19551 4.19948L7.71436 4.51439L8.2332 4.19948L7.71436 3.34461ZM1.71436 3.34461L1.19551 2.48975L0.714355 2.78177V3.34461H1.71436ZM1.71436 7.24635H0.714355V7.70787L1.06556 8.00731L1.71436 7.24635ZM7.71436 12.362L7.06556 13.1229L7.71436 13.6761L8.36315 13.1229L7.71436 12.362ZM13.7144 7.24635L14.3632 8.00731L14.7144 7.70787V7.24635H13.7144ZM13.7144 3.34461H14.7144V2.78177L14.2332 2.48975L13.7144 3.34461ZM10.7144 1.5238L11.2332 0.668938L10.7144 0.35403L10.1955 0.668938L10.7144 1.5238ZM4.19551 2.37867L7.19551 4.19948L8.2332 2.48975L5.2332 0.668938L4.19551 2.37867ZM2.2332 4.19948L5.2332 2.37867L4.1955 0.668938L1.19551 2.48975L2.2332 4.19948ZM2.71436 7.24635V3.34461H0.714355V7.24635H2.71436ZM8.36315 11.601L2.36315 6.48538L1.06556 8.00731L7.06556 13.1229L8.36315 11.601ZM8.36315 13.1229L14.3632 8.00731L13.0656 6.48538L7.06556 11.601L8.36315 13.1229ZM14.7144 7.24635V3.34461H12.7144V7.24635H14.7144ZM14.2332 2.48975L11.2332 0.668938L10.1955 2.37867L13.1955 4.19948L14.2332 2.48975ZM10.1955 0.668938L7.19551 2.48975L8.2332 4.19948L11.2332 2.37867L10.1955 0.668938Z" fill="white"/>
</svg>
